<svg xmlns="http://www.w3.org/2000/svg" viewBox="-48 -103 1679 1679"><g fill="#0B0B0B"><path d="M1038 144l117 61 108 89 74 93 59 109 39 128 12 121-12 124-38 128-53 101-9 1-16-17 58-120 32-118 7-122-18-123-31-91-41-80-49-71-54-57-66-55-77-47-86-37-93-24-95-9-86 5-92 18-86 31-116 67-102 94-76 109-50 123-26 134 6 132 40 139 56 108 85 103 108 83 111 55 127 32 126 7 119-20 136-53 121-82 21 18-52 45-83 51-98 42-83 21-81 9-104-3-90-16-83-27-114-58-101-80-83-99-64-116-38-126-13-125 12-124 35-118 58-112 87-108 77-66 124-69 122-40 103-13 117 10z"/><path d="M481 415l92 66 70 13-64 73-54-72-71-63-54-21-28 14-19 52 2 64 14 55 28 44-9 27 3 26 28 53-25 38-5-39-25-54-6-60-29-86-4-51 6-50 21-44 34-21 40 5z"/><path d="M1235 391l27 48 7 79-11 58-21 55-6 57-26 55-3 42-26-41 26-48 4-27-8-30 27-44 16-57 0-65-19-49-15-10-22-2-50 24-67 58-51 72-62-73 68-12 145-95 36-7z"/><path d="M838 473l-17 74-10 1-13-20-13 19-11 2-15-76 55-7z"/><path d="M722 477l11 75-22 75 5 55-20 27-5 98-23-23-9-28 4-30 17-24-10-46 20-90-9-79z"/><path d="M874 477l40 7-10 83 18 76-9 60 15 22 4 28-8 31-21 23-9-96-19-31 6-54-18-77z"/><path d="M1213 478l-16 23-44 5 22-16z"/><path d="M382 479l57 27-43-3z"/><path d="M416 519l29 17-37-4-15-16z"/><path d="M1198 516l-22 19-32 1 28-17z"/><path d="M409 551l25 5 29 17-31 0z"/><path d="M1182 551l-26 23-30-1 27-17z"/><path d="M812 565l13 22 3 39-8 25-7-2-17 53-17-54-9-7-2-45 11-29 9 2 9 18z"/><path d="M461 603l-12 12 6 4-9 15 25 0-19 30-2 28-7 5-6-24 9-27-12-22 10-9-19-11 13-7z"/><path d="M1165 600l2 7-16 4-23-7z"/><path d="M1152 619l3 17-8 6 9 34-6 20-9-32-23-31 21-1-4-14z"/><path d="M729 694l13 24 6 34-18 68-7-110z"/><path d="M860 695l9 15-1 94-7 16-17-66z"/><path d="M609 805l50 12 38 38 25 78-1 32-10 17-24-13-12-34-53 3-39-17-22-29-8-40-49 14-60 55-51-3-2-41 38-6 66-45 46-1 37-16zM585 840l-5 37 24 34 41 7 33-22 5-17-12-18-17 35-38 3-18-27 8-40zM625 839l3 17 16-2-2-16z"/><path d="M1018 810l36 16 50 2 57 41 42 10-5 42-46 1-62-56-50-15-10 42-22 27-39 18-53-2-13 36-24 7-8-21 2-33 14-52 19-34 50-31zM984 832l8 29-8 27-18 13-20 0-18-14-10-24-11 19 18 27 39 10 37-22 10-20 0-25-8-15zM945 839l2 15 16 1-1-19z"/><path d="M526 914l75 50-42-2-45-25-11-18z"/><path d="M1085 915l-3 17-32 22-31 10-29-1 77-50z"/><path d="M494 996l52 22 17 17-48 4-19 11 1 13-36 5-24-29-13-32 36 2z"/><path d="M1121 1004l50 5-10 27-25 32-41-4 2-13-23-13-46-2 13-15 44-22z"/><path d="M868 1004l9 20-14 17z"/><path d="M721 1005l7 10 0 24-12-12z"/><path d="M724 1046l11 10 17-6 19 5-28 11-1 12 27 10 10 32 9 3 9-18 8 19 14-8 2-27 30-13-6-13-29-7 22-8 19 8 13-10-3 33-57 63-1 19 23 18 34 10 41-4-3-9 7-2 23 1-28 24-29 9-77-17-72 17-43-10-27-25 29 1-4 9 12 3 35 1 38-12 17-17-2-16-58-62-9-25z"/><path d="M671 1064l16 14-8 7-61-20 19-14z"/><path d="M969 1055l6 10-12 9-59 9 33-28z"/><path d="M546 1071l22 8-51 8-42-8z"/><path d="M1068 1071l52 7-29 7-60-5-5-3 11-3z"/><path d="M981 1090l-5 13-17 11-57 7 15-12z"/><path d="M614 1090l62 19 13 12-58-7-15-10z"/><path d="M1141 1120l32 15-157-30 55-2z"/><path d="M580 1106l-136 21 86-25z"/><path d="M632 1132l63 21-49-1-23-18z"/><path d="M969 1130l-24 23-48 1z"/><path d="M590 1135l-122 43 88-46z"/><path d="M1083 1151l63 37-142-51 31-3z"/></g></svg>
